<svg width="22" height="30" viewBox="0 0 22 30" fill="none" xmlns="http://www.w3.org/2000/svg">
<g clip-path="url(#clip0)">
<path d="M21.3125 20.1009H20.625V13.7052C20.625 13.2027 20.3156 12.7915 19.9375 12.7915H19.25V8.22311C19.25 7.72059 18.9406 7.30943 18.5625 7.30943H17.875V0.913679C17.875 0.411156 17.5656 0 17.1875 0C16.8094 0 16.5 0.411156 16.5 0.913679V1.82736H13.75V0.913679C13.75 0.411156 13.4406 0 13.0625 0C12.6844 0 12.375 0.411156 12.375 0.913679V1.82736H9.625V0.913679C9.625 0.411156 9.31563 0 8.9375 0C8.55937 0 8.25 0.411156 8.25 0.913679V1.82736H5.5V0.913679C5.5 0.411156 5.19063 0 4.8125 0C4.43437 0 4.125 0.411156 4.125 0.913679V7.30943H3.4375C3.05938 7.30943 2.75 7.72059 2.75 8.22311V12.7915H2.0625C1.68438 12.7915 1.375 13.2027 1.375 13.7052V20.1009H0.6875C0.309375 20.1009 0 20.5121 0 21.0146V28.3241C0 28.8266 0.309375 29.2377 0.6875 29.2377H4.125V20.1009H5.5V12.7915H6.875V7.30943H8.25V12.7915H6.875V20.1009H5.5V29.2377H8.9375V24.6693C8.9375 24.1668 9.24687 23.7557 9.625 23.7557H12.375C12.7531 23.7557 13.0625 24.1668 13.0625 24.6693V29.2377H16.5V20.1009H15.125V12.7915H13.75V7.30943H15.125V12.7915H16.5V20.1009H17.875V29.2377H21.3125C21.6906 29.2377 22 28.8266 22 28.3241V21.0146C22 20.5121 21.6906 20.1009 21.3125 20.1009ZM9.96875 10.0505C9.96875 9.54795 10.2781 9.13679 10.6562 9.13679H11.3438C11.7219 9.13679 12.0312 9.54795 12.0312 10.0505V12.7915H9.96875V10.0505ZM12.375 20.1009H9.625V16.4462C9.625 15.9437 9.93437 15.5325 10.3125 15.5325H11.6875C12.0656 15.5325 12.375 15.9437 12.375 16.4462V20.1009Z" fill="#333333" fill-opacity="0.9"/>
<ellipse cx="11" cy="26.8013" rx="3" ry="3.65472" fill="#E67817"/>
</g>
<defs>
<clipPath id="clip0">
<rect width="22" height="29.2377" fill="white"/>
</clipPath>
</defs>
</svg>
