<svg width="28" height="24" viewBox="0 0 28 24" fill="none" xmlns="http://www.w3.org/2000/svg">
<path d="M27.3 21H0.7C0.31325 21 0 21.3356 0 21.75V23.25C0 23.6644 0.31325 24 0.7 24H27.3C27.6868 24 28 23.6644 28 23.25V21.75C28 21.3356 27.6868 21 27.3 21ZM1.96044 9.64033L5.84281 13.3903C6.16137 13.6985 6.54307 13.9222 6.95713 14.0433L19.5396 17.7159C20.6981 18.0539 21.9266 18.1247 23.0834 17.7797C24.3814 17.392 24.9839 16.7855 25.1506 16.1058C25.3181 15.4261 25.0749 14.5725 24.1281 13.5295C23.2846 12.6005 22.1878 11.9925 21.0293 11.6546L16.7633 10.4096L12.3725 1.4166C12.3064 1.14425 12.1122 0.931441 11.8624 0.858317L9.01469 0.0272241C8.55269 -0.107776 8.10031 0.276599 8.10862 0.797848L10.2051 8.49518L5.73387 7.19018L4.52681 4.00831C4.44238 3.77909 4.26388 3.60659 4.04469 3.54284L2.3065 3.03519C1.85413 2.903 1.40831 3.26956 1.4 3.77956L1.41006 8.55049C1.41838 8.96815 1.67387 9.3633 1.96044 9.64033Z" fill="#333333" fill-opacity="0.9"/>
</svg>
