<svg width="35" height="24" viewBox="0 0 35 24" fill="none" xmlns="http://www.w3.org/2000/svg">
<path d="M15.8893 8.77295C14.7794 8.28384 13.475 8.23324 12.3489 8.58548C14.6789 8.58548 16.2431 9.57223 17.0289 11.0229C17.4979 11.8855 16.7474 12.8576 15.7374 12.8576C16.7452 12.8576 17.4989 13.828 17.0289 14.6924C16.2237 16.1789 14.5066 17.1432 12.6376 17.1432C12.6072 17.1432 7.47126 16.728 7.47126 16.728L3.83968 18.3351C3.32649 18.5613 2.75604 18.3533 2.53292 17.9601L0.10173 13.6745C-0.126153 13.2594 0.0409724 12.7638 0.48159 12.5362L3.6574 10.9425L5.90626 7.36678C6.25572 4.60797 7.80561 2.07679 10.2672 0.29563C10.8902 -0.159697 11.8171 -0.0793592 12.3185 0.46975C12.8351 1.01886 12.744 1.82238 12.121 2.27775C11.4372 2.78662 10.8294 3.36253 10.3432 3.99197C11.5284 3.28214 12.8959 2.80007 14.4002 2.63934C15.2055 2.54561 15.9349 3.04108 16.0261 3.75091C16.1324 4.4607 15.5702 5.10354 14.7649 5.18388C13.8835 5.27761 13.063 5.54547 12.3489 5.92046C13.777 5.64513 15.5597 5.76923 17.1657 6.45612C17.895 6.77752 18.1989 7.5409 17.8342 8.18374C17.4848 8.81314 16.6035 9.08095 15.8893 8.77295ZM14.4002 12.121C14.066 11.5183 13.3974 11.1434 12.6376 11.1434C12.3819 11.1427 12.1287 11.1866 11.8923 11.2725C11.656 11.3584 11.4413 11.4847 11.2605 11.644C11.0797 11.8033 10.9365 11.9925 10.8391 12.2008C10.7416 12.4091 10.6918 12.6323 10.6926 12.8576C10.6926 13.8903 11.6665 14.5718 12.6376 14.5718C13.3974 14.5718 14.066 14.1968 14.4002 13.5942C14.6434 13.1388 15.1447 12.871 15.6766 12.8576C15.1447 12.8442 14.6434 12.5764 14.4002 12.121ZM34.8982 10.3264C35.1262 10.7416 34.959 11.2371 34.5184 11.4648L31.3426 13.0585L29.0938 16.6342C28.7443 19.393 27.1944 21.9242 24.7328 23.7054C24.135 24.1445 23.2126 24.0978 22.6815 23.5312C22.1649 22.9821 22.256 22.1786 22.8791 21.7232C23.5628 21.2144 24.1706 20.6385 24.6569 20.009C23.4717 20.7188 22.1041 21.2009 20.5998 21.3616C20.0518 21.4824 19.0931 21.0897 18.974 20.2501C18.8676 19.5403 19.4298 18.8974 20.2352 18.8171C21.1165 18.7233 21.937 18.4555 22.6511 18.0805C21.223 18.3559 19.4403 18.2318 17.8343 17.5449C17.105 17.2235 16.8011 16.4601 17.1658 15.8172C17.5152 15.1878 18.3966 14.9199 19.1108 15.228C20.2207 15.7171 21.5251 15.7677 22.6512 15.4155C20.3212 15.4155 18.757 14.4287 17.9711 12.9781C17.5021 12.1155 18.2527 11.1433 19.2627 11.1433C18.2549 11.1433 17.5012 10.1729 17.9711 9.30856C18.7386 7.89188 20.3795 6.85617 22.4537 6.85776L27.5288 7.27294L31.1604 5.66586C31.6749 5.43916 32.2448 5.6488 32.4671 6.04085L34.8982 10.3264ZM22.3624 9.42919C21.6026 9.42919 20.934 9.80418 20.5998 10.4068C20.3566 10.8622 19.8552 11.13 19.3234 11.1434C19.8552 11.1568 20.3566 11.4247 20.5998 11.88C20.934 12.4826 21.6026 12.8576 22.3624 12.8576C22.618 12.8583 22.8713 12.8144 23.1077 12.7285C23.344 12.6426 23.5587 12.5163 23.7395 12.357C23.9202 12.1977 24.0635 12.0085 24.1609 11.8002C24.2584 11.5919 24.3081 11.3687 24.3074 11.1434C24.3074 10.1107 23.3335 9.42919 22.3624 9.42919Z" fill="#333333" fill-opacity="0.9"/>
</svg>
