<svg width="22" height="30" viewBox="0 0 22 30" fill="none" xmlns="http://www.w3.org/2000/svg">
<path d="M21.7458 13.769C19.5922 8.30511 15.5761 4.65331 11 4.65331C9.9127 4.65331 8.85724 4.85997 7.85085 5.24771L5.83529 1.12651C5.54498 0.506461 4.97347 0.35559 4.55872 0.789588L4.05784 1.3137C3.64305 1.74775 3.54214 2.60233 3.83249 3.22249L5.47986 6.55713C3.41648 8.06419 1.53651 10.517 0.255238 13.7662C0.254856 13.7671 0.254359 13.7681 0.253939 13.769C-0.0808353 14.6185 -0.088436 15.6836 0.253939 16.5523C1.72443 20.2831 4.06353 23.1686 6.85619 24.624L2.11279 14.4926C2.43391 13.7649 2.79541 13.0789 3.19346 12.4419L7.75388 22.1828H7.75426L9.3061 25.4972C10.3057 25.6997 11.318 25.7222 12.3212 25.564L5.06499 10.0657C5.53591 9.59685 6.03118 9.18508 6.54605 8.83436L16.1648 29.1948C16.4551 29.8148 17.0266 29.9657 17.4414 29.5317L17.9422 29.0076C18.357 28.5735 18.4579 27.7189 18.1676 27.0988L16.5206 23.7652L16.5204 23.7647C18.7036 22.167 20.5245 19.6508 21.7458 16.5523C21.9122 16.1307 22 15.6502 22 15.1607C22 14.6711 21.9122 14.1906 21.7458 13.769ZM14.8968 20.2966L14.1686 18.7417C15.1113 16.8819 15.227 14.3815 14.5047 12.3642V12.3659C14.5047 13.7164 13.7726 14.8111 12.8693 14.8111C11.9592 14.8111 11.2338 13.7062 11.2338 12.3659C11.2338 11.0154 11.966 9.92067 12.8693 9.92067H12.8704C11.9251 9.16409 10.8262 9.02738 9.83356 9.4821L9.10527 7.92674C9.69217 7.58314 10.3312 7.39435 11 7.39435C13.8708 7.39435 16.1945 10.8678 16.1945 15.1606C16.1945 17.131 15.7043 18.9281 14.8968 20.2966Z" fill="#333333" fill-opacity="0.9"/>
</svg>
