<svg width="17" height="22" viewBox="0 0 17 22" fill="none" xmlns="http://www.w3.org/2000/svg">
<path d="M12.9317 15.5823L12.9316 15.5825C12.8658 15.6818 11.4264 17.8251 8.74962 17.8251C5.45174 17.8251 3.29755 14.6725 3.29755 10.8995C3.29755 7.15886 5.53672 4.06942 8.72487 4.06942C11.2724 4.06942 12.6025 5.89229 12.6769 5.99674M12.9317 15.5823L12.2696 6.28673M12.9317 15.5823C13.048 15.4066 13.1065 15.2 13.1124 14.997C13.1183 14.7938 13.0717 14.5852 12.9685 14.4034L12.9684 14.4034L12.1271 12.9215L12.9317 15.5823ZM12.6769 5.99674L12.2696 6.28673M12.6769 5.99674C12.6769 5.99671 12.6768 5.99667 12.6768 5.99663L12.2696 6.28673M12.6769 5.99674C12.7977 6.16641 12.8622 6.3679 12.8753 6.56736C12.8884 6.76713 12.8507 6.97336 12.759 7.15634L12.312 6.93222C12.3614 6.83375 12.384 6.71696 12.3763 6.60015C12.3687 6.48334 12.3311 6.37311 12.2696 6.28673M11.9919 8.68609L12.759 7.15636L11.058 13.1218C11.2338 12.8761 11.5398 12.8996 11.6923 13.1683L12.1271 12.9214C11.9821 12.666 11.7304 12.4766 11.421 12.4536C11.1075 12.4302 10.8274 12.5849 10.6514 12.8307L10.6512 12.831C10.6518 12.8302 10.6516 12.8304 10.6507 12.8317C10.6362 12.8509 10.4409 13.1094 10.1172 13.3672C9.76764 13.6456 9.31629 13.8854 8.81148 13.8854C8.181 13.8854 7.6882 13.5616 7.33167 13.0105C6.96734 12.4472 6.7657 11.6675 6.7657 10.8676C6.7657 10.0075 6.98492 9.27748 7.34541 8.77696C7.69698 8.28882 8.18559 8.00916 8.79911 8.00916C9.26303 8.00916 9.69144 8.21122 10.0257 8.44336C10.3311 8.65546 10.5213 8.86737 10.5377 8.88566C10.5391 8.88719 10.5392 8.88736 10.5382 8.88607L10.92 8.56328L10.5369 8.88453C10.7317 9.11696 11.0235 9.24319 11.3303 9.19367C11.63 9.14528 11.863 8.94313 11.9919 8.68617L11.9919 8.68609ZM0.5 10.9473C0.5 5.05229 4.19205 0.5 8.5 0.5C12.808 0.5 16.5 5.05229 16.5 10.9473C16.5 16.8422 12.808 21.3945 8.5 21.3945C4.19205 21.3945 0.5 16.8422 0.5 10.9473Z" stroke="white"/>
</svg>
