<svg width="22" height="21" viewBox="0 0 22 21" fill="none" xmlns="http://www.w3.org/2000/svg">
<path d="M22 7.76071C22 8.98804 21.1127 10.0375 20.075 10.0375H15.7845C16.4866 10.9231 16.5728 12.6229 15.5139 13.7231C16.1278 14.9091 15.6061 16.4773 14.807 16.9604C15.1926 19.5133 13.864 20.6625 11.6875 20.6625C11.5695 20.6625 11.117 20.652 11 20.6524C8.33718 20.6611 7.69596 19.0386 5.68343 18.6619C5.18186 18.568 4.8125 18.0442 4.8125 17.4305V8.51965L4.81259 8.5196C4.81306 7.56547 5.26836 6.65514 6.03565 6.24183C7.27684 5.56678 10.1354 3.69427 10.6562 2.22485C10.9913 1.27966 11.5751 0.713917 12.375 0.713501C13.8455 0.712774 14.8565 2.53686 14.2707 4.18941C14.1168 4.62367 13.9136 5.05543 13.6626 5.48392H20.075C21.0826 5.48392 22 6.55114 22 7.76071ZM4.125 7.77878V17.7533C4.125 18.4419 3.6633 19.0001 3.09375 19.0001H1.03125C0.461699 19.0001 0 18.4419 0 17.7533V7.77878C0 7.09018 0.461699 6.53197 1.03125 6.53197H3.09375C3.6633 6.53197 4.125 7.09018 4.125 7.77878ZM2.92188 16.5065C2.92188 15.9326 2.53713 15.4675 2.0625 15.4675C1.58787 15.4675 1.20312 15.9326 1.20312 16.5065C1.20312 17.0803 1.58787 17.5455 2.0625 17.5455C2.53713 17.5455 2.92188 17.0803 2.92188 16.5065Z" fill="#333333" fill-opacity="0.9"/>
<path d="M22 7.76071C22 8.98804 21.1127 10.0375 20.075 10.0375H15.7845C16.4866 10.9231 16.5728 12.6229 15.5139 13.7231C16.1278 14.9091 15.6061 16.4773 14.807 16.9604C15.1926 19.5133 13.864 20.6625 11.6875 20.6625C11.5695 20.6625 11.117 20.652 11 20.6524C8.33718 20.6611 7.69596 19.0386 5.68343 18.6619C5.18186 18.568 4.8125 18.0442 4.8125 17.4305V8.51965L4.81259 8.5196C4.81306 7.56547 5.26836 6.65514 6.03565 6.24183C7.27684 5.56678 10.1354 3.69427 10.6562 2.22485C10.9913 1.27966 11.5751 0.713917 12.375 0.713501C13.8455 0.712774 14.8565 2.53686 14.2707 4.18941C14.1168 4.62367 13.9136 5.05543 13.6626 5.48392H20.075C21.0826 5.48392 22 6.55114 22 7.76071ZM4.125 7.77878V17.7533C4.125 18.4419 3.6633 19.0001 3.09375 19.0001H1.03125C0.461699 19.0001 0 18.4419 0 17.7533V7.77878C0 7.09018 0.461699 6.53197 1.03125 6.53197H3.09375C3.6633 6.53197 4.125 7.09018 4.125 7.77878ZM2.92188 16.5065C2.92188 15.9326 2.53713 15.4675 2.0625 15.4675C1.58787 15.4675 1.20312 15.9326 1.20312 16.5065C1.20312 17.0803 1.58787 17.5455 2.0625 17.5455C2.53713 17.5455 2.92188 17.0803 2.92188 16.5065Z" fill="#333333" fill-opacity="0.9"/>
<path d="M22 7.76071C22 8.98804 21.1127 10.0375 20.075 10.0375H15.7845C16.4866 10.9231 16.5728 12.6229 15.5139 13.7231C16.1278 14.9091 15.6061 16.4773 14.807 16.9604C15.1926 19.5133 13.864 20.6625 11.6875 20.6625C11.5695 20.6625 11.117 20.652 11 20.6524C8.33718 20.6611 7.69596 19.0386 5.68343 18.6619C5.18186 18.568 4.8125 18.0442 4.8125 17.4305V8.51965L4.81259 8.5196C4.81306 7.56547 5.26836 6.65514 6.03565 6.24183C7.27684 5.56678 10.1354 3.69427 10.6562 2.22485C10.9913 1.27966 11.5751 0.713917 12.375 0.713501C13.8455 0.712774 14.8565 2.53686 14.2707 4.18941C14.1168 4.62367 13.9136 5.05543 13.6626 5.48392H20.075C21.0826 5.48392 22 6.55114 22 7.76071ZM4.125 7.77878V17.7533C4.125 18.4419 3.6633 19.0001 3.09375 19.0001H1.03125C0.461699 19.0001 0 18.4419 0 17.7533V7.77878C0 7.09018 0.461699 6.53197 1.03125 6.53197H3.09375C3.6633 6.53197 4.125 7.09018 4.125 7.77878ZM2.92188 16.5065C2.92188 15.9326 2.53713 15.4675 2.0625 15.4675C1.58787 15.4675 1.20312 15.9326 1.20312 16.5065C1.20312 17.0803 1.58787 17.5455 2.0625 17.5455C2.53713 17.5455 2.92188 17.0803 2.92188 16.5065Z" fill="#E67B1D"/>
</svg>
