<svg width="14" height="15" viewBox="0 0 14 15" fill="none" xmlns="http://www.w3.org/2000/svg">
<path d="M6.85906 3.44273C5.01353 3.44273 3.52492 5.05917 3.52492 7.06317C3.52492 9.06717 5.01353 10.6836 6.85906 10.6836C8.70458 10.6836 10.1932 9.06717 10.1932 7.06317C10.1932 5.05917 8.70458 3.44273 6.85906 3.44273ZM6.85906 9.41693C5.66643 9.41693 4.69143 8.36136 4.69143 7.06317C4.69143 5.76498 5.66353 4.70941 6.85906 4.70941C8.05459 4.70941 9.02668 5.76498 9.02668 7.06317C9.02668 8.36136 8.05169 9.41693 6.85906 9.41693ZM11.1073 3.29464C11.1073 3.76413 10.759 4.13909 10.3296 4.13909C9.89721 4.13909 9.5519 3.76098 9.5519 3.29464C9.5519 2.8283 9.90012 2.45018 10.3296 2.45018C10.759 2.45018 11.1073 2.8283 11.1073 3.29464ZM13.3155 4.1517C13.2662 3.02051 13.0282 2.0185 12.2651 1.19296C11.5048 0.367408 10.582 0.10903 9.5403 0.052313C8.46664 -0.0138569 5.24857 -0.0138569 4.17492 0.052313C3.13608 0.105879 2.21332 0.364257 1.45015 1.18981C0.686983 2.01535 0.451939 3.01735 0.399707 4.14854C0.33877 5.3144 0.33877 8.8088 0.399707 9.97465C0.449037 11.1058 0.686983 12.1078 1.45015 12.9334C2.21332 13.7589 3.13318 14.0173 4.17492 14.074C5.24857 14.1402 8.46664 14.1402 9.5403 14.074C10.582 14.0205 11.5048 13.7621 12.2651 12.9334C13.0253 12.1078 13.2633 11.1058 13.3155 9.97465C13.3764 8.8088 13.3764 5.31755 13.3155 4.1517ZM11.9285 11.2256C11.7021 11.8432 11.2639 12.319 10.6923 12.5679C9.83628 12.9365 7.80503 12.8515 6.85906 12.8515C5.91308 12.8515 3.87893 12.9334 3.02581 12.5679C2.45706 12.3221 2.0189 11.8463 1.78966 11.2256C1.45015 10.296 1.5285 8.09038 1.5285 7.06317C1.5285 6.03596 1.45305 3.82715 1.78966 2.90077C2.016 2.28318 2.45416 1.80739 3.02581 1.55847C3.88184 1.18981 5.91308 1.27488 6.85906 1.27488C7.80503 1.27488 9.83918 1.19296 10.6923 1.55847C11.261 1.80424 11.6992 2.28003 11.9285 2.90077C12.268 3.8303 12.1896 6.03596 12.1896 7.06317C12.1896 8.09038 12.268 10.2992 11.9285 11.2256Z" fill="white"/>
</svg>
