<svg width="14" height="15" viewBox="0 0 14 15" fill="none" xmlns="http://www.w3.org/2000/svg">
<path d="M3.26611 14.1163H0.570933V4.69191H3.26611V14.1163ZM1.91707 3.40633C1.05524 3.40633 0.356201 2.6312 0.356201 1.69537C0.356201 1.24586 0.52065 0.814761 0.81337 0.496908C1.10609 0.179056 1.5031 0.000488281 1.91707 0.000488281C2.33104 0.000488281 2.72805 0.179056 3.02077 0.496908C3.31349 0.814761 3.47794 1.24586 3.47794 1.69537C3.47794 2.6312 2.77861 3.40633 1.91707 3.40633ZM13.3533 14.1163H10.6639V9.52858C10.6639 8.43521 10.6436 7.03305 9.26265 7.03305C7.86138 7.03305 7.64665 8.22095 7.64665 9.44981V14.1163H4.95437V4.69191H7.53928V5.97749H7.577C7.93683 5.23702 8.81578 4.45559 10.1271 4.45559C12.8548 4.45559 13.3562 6.40601 13.3562 8.93936V14.1163H13.3533Z" fill="white"/>
</svg>
