<svg width="15" height="14" viewBox="0 0 15 14" fill="none" xmlns="http://www.w3.org/2000/svg">
<path d="M12.9171 3.78058C12.926 3.92389 12.926 4.06722 12.926 4.21053C12.926 8.58152 10.039 13.6179 4.76231 13.6179C3.13666 13.6179 1.62651 13.0754 0.356201 12.1336C0.587175 12.1643 0.809234 12.1746 1.04909 12.1746C2.39045 12.1746 3.62524 11.6525 4.61129 10.7619C3.34986 10.7312 2.29275 9.77922 1.92853 8.46893C2.10621 8.49962 2.28386 8.52011 2.47043 8.52011C2.72803 8.52011 2.98567 8.47914 3.2255 8.40752C1.91078 8.1004 0.924707 6.76966 0.924707 5.16252V5.12159C1.30667 5.36727 1.75087 5.52082 2.22165 5.54127C1.44881 4.94754 0.942481 3.93413 0.942481 2.78763C0.942481 2.17345 1.08459 1.61044 1.33333 1.11908C2.74578 3.12544 4.8689 4.4357 7.24959 4.57903C7.20518 4.33335 7.17852 4.07747 7.17852 3.82155C7.17852 1.99942 8.45772 0.515137 10.0478 0.515137C10.874 0.515137 11.6201 0.914361 12.1443 1.55926C12.7927 1.41596 13.4146 1.13956 13.9653 0.760816C13.7521 1.52857 13.2991 2.17348 12.7039 2.58291C13.2813 2.51129 13.841 2.32699 14.3562 2.0711C13.9654 2.72622 13.4768 3.30968 12.9171 3.78058Z" fill="white"/>
</svg>
